<svg xmlns="http://www.w3.org/2000/svg" viewBox="0 0 500 350"><defs><linearGradient id="b" x2="1" y2="1"><stop stop-color="#e8d8b7"/><stop offset="1" stop-color="#c8a86c"/></linearGradient></defs><rect width="500" height="350" fill="#e9e0cf"/><ellipse cx="250" cy="185" rx="177" ry="112" fill="#f9f4e9"/><g fill="url(#b)" stroke="#ac8751" stroke-width="4"><path d="M112 143q35-28 70 0v66q-35 28-70 0z"/><path d="M187 112q35-28 70 0v66q-35 28-70 0z"/><path d="M263 139q35-28 70 0v66q-35 28-70 0z"/><path d="M328 180q35-28 70 0v66q-35 28-70 0z"/><path d="M185 207q35-28 70 0v66q-35 28-70 0z"/></g><g fill="#59744f"><ellipse cx="145" cy="240" rx="9" ry="24" transform="rotate(45 145 240)"/><ellipse cx="338" cy="118" rx="8" ry="22" transform="rotate(-52 338 118)"/></g><circle cx="348" cy="248" r="5" fill="#b96443"/></svg>
