<svg xmlns="http://www.w3.org/2000/svg" viewBox="0 0 500 350"><rect width="500" height="350" fill="#e7cfaa"/><ellipse cx="250" cy="186" rx="181" ry="114" fill="#faf5e8"/><g fill="#e3b663" stroke="#ae7e3f" stroke-width="4"><path d="M97 205q0-60 60-60t60 60q-60 25-120 0"/><path d="M190 143q0-60 60-60t60 60q-60 25-120 0"/><path d="M286 202q0-60 60-60t60 60q-60 25-120 0"/><path d="M179 257q0-58 58-58t58 58q-58 24-116 0"/></g><g fill="#58734f"><ellipse cx="139" cy="120" rx="10" ry="27" transform="rotate(-48 139 120)"/><ellipse cx="369" cy="246" rx="10" ry="28" transform="rotate(48 369 246)"/></g><circle cx="330" cy="106" r="6" fill="#b96747"/></svg>
